Genre:Action | Comedy
Language : English 
IMDB:http://www.imdb.com/title/tt1470023/
Source:BluRay.X264-HUBRIS

General
Complete name :MacGruber.2010.BRRip.AC3.Mkv.FEEL-FREE
Format : Matroska
File size : 1.53 GiB
Duration : 1h 34mn
Overall bit rate : 2 304 Kbps
Video #1
ID : 1
Format : MPEG-4 Visual
Format profile : AdvancedSimple@L5
Format settings, BVOP : Yes
Format settings, QPel : No
Format settings, GMC : No warppoints
Format settings, Matrix : Default (H.263)
Codec ID : XVID
Codec ID/Hint : XviD
Duration : 1h 34mn
Bit rate : 1 938 Kbps
Width : 688 pixels
Height : 288 pixels
Display aspect ratio : 2.500
Original display aspect ratio : 2.35:1
Frame rate : 23.976 fps
Resolution : 24 bits
Colorimetry : 4:2:0
Scan type : Progressive
Bits/(Pixel*Frame) : 0.408
Stream size : 1.28 GiB (84%)
Writing library : XviD 1.2.1 (UTC 2008-12-04)
Audio #2
ID : 2
Format : AC-3
Format/Info : Audio Coding 3
Codec ID : A_AC3
Duration : 1h 34mn
Bit rate mode : Constant
Bit rate : 320 Kbps
Channel(s) : 6 channels
Channel positions : Front: L C R, Surround: L R, LFE
Sampling rate : 48.0 KHz
Stream size : 217 MiB (14%)

Plot
Ex-special operative MacGruber is called back into action to take down his archenemy, Dieter Von Cunth, who's in possession of a nuclear warhead and bent on destroying Washington




 
http://thepiratebay.org/user/hiest





Screenshots:
 
http://www.starshare.ro/bitbucket/MacGruber.2010.BRRip.AC3.Mkv.FEEL-FREE.mkv_snapshot_00.07.05_%5B2010.08.28_14.01.12%5D.jpg
 
http://www.starshare.ro/bitbucket/MacGruber.2010.BRRip.AC3.Mkv.FEEL-FREE.mkv_snapshot_00.09.22_%5B2010.08.28_14.00.41%5D.jpg
 
http://www.starshare.ro/bitbucket/MacGruber.2010.BRRip.AC3.Mkv.FEEL-FREE.mkv_snapshot_00.19.40_%5B2010.08.28_14.01.15%5D.jpg
 
http://www.starshare.ro/bitbucket/MacGruber.2010.BRRip.AC3.Mkv.FEEL-FREE.mkv_snapshot_00.30.22_%5B2010.08.28_14.01.59%5D.jpg
 
http://www.starshare.ro/bitbucket/MacGruber.2010.BRRip.AC3.Mkv.FEEL-FREE.mkv_snapshot_00.33.43_%5B2010.08.28_14.01.18%5D.jpg
 
http://www.starshare.ro/bitbucket/MacGruber.2010.BRRip.AC3.Mkv.FEEL-FREE.mkv_snapshot_01.24.38_%5B2010.08.28_14.01.09%5D.jpg